<svg width="48" height="48" viewBox="0 0 48 48" fill="none" xmlns="http://www.w3.org/2000/svg">
<path d="M23.9998 4.00049C21.3733 4.00049 18.7726 4.5178 16.3461 5.5229C13.9196 6.52799 11.7148 8.00118 9.85762 9.85835C6.10689 13.6091 3.99976 18.6962 3.99976 24.0005C3.99976 32.8405 9.73976 40.3405 17.6798 43.0005C18.6798 43.1605 18.9998 42.5405 18.9998 42.0005V38.6205C13.4598 39.8205 12.2798 35.9405 12.2798 35.9405C11.3598 33.6205 10.0598 33.0005 10.0598 33.0005C8.23976 31.7605 10.1998 31.8005 10.1998 31.8005C12.1998 31.9405 13.2598 33.8605 13.2598 33.8605C14.9998 36.9005 17.9398 36.0005 19.0798 35.5205C19.2598 34.2205 19.7798 33.3405 20.3398 32.8405C15.8998 32.3405 11.2398 30.6205 11.2398 23.0005C11.2398 20.7805 11.9998 19.0005 13.2998 17.5805C13.0998 17.0805 12.3998 15.0005 13.4998 12.3005C13.4998 12.3005 15.1798 11.7605 18.9998 14.3405C20.5798 13.9005 22.2998 13.6805 23.9998 13.6805C25.6998 13.6805 27.4198 13.9005 28.9998 14.3405C32.8198 11.7605 34.4998 12.3005 34.4998 12.3005C35.5998 15.0005 34.8998 17.0805 34.6998 17.5805C35.9998 19.0005 36.7598 20.7805 36.7598 23.0005C36.7598 30.6405 32.0798 32.3205 27.6198 32.8205C28.3398 33.4405 28.9998 34.6605 28.9998 36.5205V42.0005C28.9998 42.5405 29.3198 43.1805 30.3398 43.0005C38.2798 40.3205 43.9998 32.8405 43.9998 24.0005C43.9998 21.3741 43.4824 18.7733 42.4773 16.3468C41.4723 13.9203 39.9991 11.7155 38.1419 9.85835C36.2847 8.00118 34.0799 6.52799 31.6534 5.5229C29.2269 4.5178 26.6262 4.00049 23.9998 4.00049Z" fill="white"/>
</svg>
