<svg width="48" height="48" viewBox="0 0 48 48" fill="none" xmlns="http://www.w3.org/2000/svg">
<path d="M34.6798 10.9205C34.2051 10.9205 33.7411 11.0612 33.3464 11.325C32.9517 11.5887 32.6441 11.9635 32.4624 12.402C32.2808 12.8406 32.2333 13.3232 32.3259 13.7887C32.4185 14.2543 32.6471 14.6819 32.9827 15.0175C33.3183 15.3532 33.746 15.5818 34.2115 15.6744C34.6771 15.767 35.1597 15.7194 35.5982 15.5378C36.0367 15.3561 36.4116 15.0485 36.6753 14.6539C36.939 14.2592 37.0798 13.7952 37.0798 13.3205C37.0798 12.684 36.8269 12.0735 36.3768 11.6234C35.9267 11.1733 35.3163 10.9205 34.6798 10.9205ZM43.8798 15.7605C43.8405 14.1011 43.5297 12.4594 42.9598 10.9005C42.4535 9.56558 41.6617 8.35741 40.6398 7.36049C39.6494 6.33534 38.4389 5.54884 37.0998 5.06049C35.5451 4.47281 33.9015 4.15491 32.2398 4.12049C30.1198 4.00049 29.4398 4.00049 23.9998 4.00049C18.5598 4.00049 17.8798 4.00049 15.7598 4.12049C14.0981 4.15491 12.4544 4.47281 10.8998 5.06049C9.56371 5.55499 8.35448 6.34065 7.35976 7.36049C6.33461 8.35084 5.54811 9.56137 5.05976 10.9005C4.47208 12.4552 4.15418 14.0988 4.11976 15.7605C3.99976 17.8805 3.99976 18.5605 3.99976 24.0005C3.99976 29.4405 3.99976 30.1205 4.11976 32.2405C4.15418 33.9022 4.47208 35.5458 5.05976 37.1005C5.54811 38.4396 6.33461 39.6501 7.35976 40.6405C8.35448 41.6603 9.56371 42.446 10.8998 42.9405C12.4544 43.5282 14.0981 43.8461 15.7598 43.8805C17.8798 44.0005 18.5598 44.0005 23.9998 44.0005C29.4398 44.0005 30.1198 44.0005 32.2398 43.8805C33.9015 43.8461 35.5451 43.5282 37.0998 42.9405C38.4389 42.4521 39.6494 41.6656 40.6398 40.6405C41.6642 39.6456 42.4564 38.4369 42.9598 37.1005C43.5297 35.5416 43.8405 33.8999 43.8798 32.2405C43.8798 30.1205 43.9998 29.4405 43.9998 24.0005C43.9998 18.5605 43.9998 17.8805 43.8798 15.7605ZM40.2798 32.0005C40.2656 33.2701 40.0356 34.528 39.5998 35.7205C39.2804 36.5909 38.7675 37.3773 38.0998 38.0205C37.4506 38.681 36.6659 39.1928 35.7998 39.5205C34.6073 39.9564 33.3493 40.1863 32.0798 40.2005C30.0798 40.3005 29.3398 40.3205 24.0798 40.3205C18.8198 40.3205 18.0798 40.3205 16.0798 40.2005C14.7615 40.2264 13.4487 40.0234 12.1998 39.6005C11.3721 39.2551 10.6236 38.7448 9.99976 38.1005C9.33593 37.458 8.82944 36.6709 8.51976 35.8005C8.02985 34.5913 7.75896 33.3046 7.71976 32.0005C7.71976 30.0005 7.59976 29.2605 7.59976 24.0005C7.59976 18.7405 7.59976 18.0005 7.71976 16.0005C7.72705 14.7024 7.96404 13.4159 8.41976 12.2005C8.77185 11.3563 9.31229 10.6038 9.99976 10.0005C10.6056 9.31087 11.357 8.76438 12.1998 8.40049C13.4186 7.95945 14.7036 7.72948 15.9998 7.72049C17.9998 7.72049 18.7398 7.60049 23.9998 7.60049C29.2598 7.60049 29.9998 7.60049 31.9998 7.72049C33.2693 7.73466 34.5273 7.96461 35.7198 8.40049C36.6286 8.73779 37.4443 9.28618 38.0998 10.0005C38.7532 10.6165 39.265 11.3672 39.5998 12.2005C40.0447 13.4183 40.2747 14.704 40.2798 16.0005C40.3798 18.0005 40.3998 18.7405 40.3998 24.0005C40.3998 29.2605 40.3798 30.0005 40.2798 32.0005ZM23.9998 13.7405C21.9714 13.7444 19.9897 14.3495 18.3051 15.4793C16.6205 16.6091 15.3085 18.2129 14.535 20.088C13.7615 21.9631 13.5612 24.0254 13.9593 26.0143C14.3575 28.0033 15.3362 29.8296 16.7719 31.2624C18.2076 32.6953 20.0358 33.6705 22.0255 34.0648C24.0152 34.4591 26.0771 34.2547 27.9507 33.4776C29.8243 32.7004 31.4255 31.3854 32.552 29.6986C33.6785 28.0117 34.2798 26.0289 34.2798 24.0005C34.2824 22.6507 34.0182 21.3137 33.5022 20.0664C32.9863 18.8191 32.2289 17.6861 31.2735 16.7326C30.3181 15.7791 29.1837 15.0238 27.9354 14.5103C26.687 13.9968 25.3495 13.7352 23.9998 13.7405ZM23.9998 30.6605C22.6825 30.6605 21.3949 30.2699 20.2997 29.5381C19.2044 28.8063 18.3508 27.7661 17.8467 26.5492C17.3426 25.3322 17.2107 23.9931 17.4677 22.7012C17.7247 21.4093 18.359 20.2226 19.2904 19.2912C20.2218 18.3597 21.4085 17.7254 22.7005 17.4685C23.9924 17.2115 25.3315 17.3434 26.5484 17.8475C27.7654 18.3515 28.8055 19.2052 29.5373 20.3004C30.2692 21.3956 30.6598 22.6833 30.6598 24.0005C30.6598 24.8751 30.4875 25.7411 30.1528 26.5492C29.8181 27.3572 29.3275 28.0914 28.7091 28.7098C28.0906 29.3283 27.3565 29.8188 26.5484 30.1535C25.7404 30.4882 24.8744 30.6605 23.9998 30.6605Z" fill="white"/>
</svg>
