<svg width="48" height="48" viewBox="0 0 48 48" fill="none" xmlns="http://www.w3.org/2000/svg">
<path fill-rule="evenodd" clip-rule="evenodd" d="M11.2302 3.93311C9.29486 3.93311 7.43883 4.7019 6.07036 6.07036C4.7019 7.43883 3.93311 9.29486 3.93311 11.2302V36.7698C3.93311 38.7051 4.7019 40.5612 6.07036 41.9296C7.43883 43.2981 9.29486 44.0669 11.2302 44.0669H36.7698C38.7051 44.0669 40.5612 43.2981 41.9296 41.9296C43.2981 40.5612 44.0669 38.7051 44.0669 36.7698V11.2302C44.0669 9.29486 43.2981 7.43883 41.9296 6.07036C40.5612 4.7019 38.7051 3.93311 36.7698 3.93311H11.2302ZM9.40589 22.0097C9.40589 15.291 16.0772 10.0699 24 10.0699C31.9228 10.0699 38.5941 15.291 38.5941 22.0097C38.5941 28.7285 31.9228 33.9495 24 33.9495C23.3871 33.95 22.7746 33.9195 22.1648 33.8583L15.7251 37.8316C15.6166 37.8985 15.491 37.9327 15.3635 37.9302C15.236 37.9277 15.1119 37.8884 15.0061 37.8173C14.9002 37.7461 14.8171 37.6459 14.7667 37.5287C14.7163 37.4116 14.7007 37.2824 14.7218 37.1566L15.6266 31.7933C11.907 29.6589 9.40589 26.0997 9.40589 22.0097ZM14.0486 18.4433C13.8067 18.4433 13.5747 18.5394 13.4037 18.7105C13.2326 18.8815 13.1365 19.1135 13.1365 19.3554C13.1365 19.5973 13.2326 19.8293 13.4037 20.0004C13.5747 20.1715 13.8067 20.2676 14.0486 20.2676H15.1268V25.3262C15.1268 25.5682 15.2229 25.8002 15.3939 25.9712C15.565 26.1423 15.797 26.2384 16.0389 26.2384C16.2808 26.2384 16.5128 26.1423 16.6839 25.9712C16.8549 25.8002 16.951 25.5682 16.951 25.3262V20.2676H18.0292C18.2711 20.2676 18.5031 20.1715 18.6742 20.0004C18.8452 19.8293 18.9413 19.5973 18.9413 19.3554C18.9413 19.1135 18.8452 18.8815 18.6742 18.7105C18.5031 18.5394 18.2711 18.4433 18.0292 18.4433H14.0486ZM21.8656 19.0271C21.799 18.8558 21.6822 18.7086 21.5305 18.6048C21.3788 18.5011 21.1993 18.4455 21.0155 18.4455C20.8317 18.4455 20.6522 18.5011 20.5005 18.6048C20.3488 18.7086 20.232 18.8558 20.1654 19.0271L17.8431 24.996C17.7606 25.2204 17.7695 25.4682 17.8679 25.686C17.9662 25.9039 18.1462 26.0744 18.369 26.161C18.5918 26.2475 18.8397 26.2432 19.0593 26.1488C19.2789 26.0544 19.4527 25.8776 19.5433 25.6564L19.8334 24.9121H22.1976L22.4859 25.6564C22.5277 25.7702 22.5917 25.8744 22.6743 25.9631C22.7568 26.0519 22.8563 26.1232 22.9667 26.1731C23.0771 26.2229 23.1964 26.2503 23.3176 26.2535C23.4387 26.2568 23.5593 26.2359 23.6722 26.192C23.7852 26.1481 23.8883 26.0822 23.9755 25.998C24.0627 25.9138 24.1322 25.8131 24.18 25.7018C24.2279 25.5905 24.253 25.4707 24.2541 25.3495C24.2551 25.2284 24.232 25.1082 24.1861 24.996L21.8656 19.0271ZM21.0155 21.8729L21.488 23.0879H20.543L21.0155 21.8729ZM26.2384 19.3554C26.2384 19.1135 26.1423 18.8815 25.9712 18.7105C25.8002 18.5394 25.5682 18.4433 25.3262 18.4433C25.0843 18.4433 24.8523 18.5394 24.6813 18.7105C24.5102 18.8815 24.4141 19.1135 24.4141 19.3554V25.3262C24.4141 25.5682 24.5102 25.8002 24.6813 25.9712C24.8523 26.1423 25.0843 26.2384 25.3262 26.2384H27.9805C28.2225 26.2384 28.4545 26.1423 28.6255 25.9712C28.7966 25.8002 28.8927 25.5682 28.8927 25.3262C28.8927 25.0843 28.7966 24.8523 28.6255 24.6813C28.4545 24.5102 28.2225 24.4141 27.9805 24.4141H26.2384V19.3554ZM29.9708 18.4433C30.2127 18.4433 30.4447 18.5394 30.6158 18.7105C30.7868 18.8815 30.8829 19.1135 30.8829 19.3554V21.1341L33.3037 18.7115C33.3879 18.6243 33.4885 18.5549 33.5998 18.507C33.7111 18.4592 33.8308 18.4341 33.9519 18.433C34.073 18.432 34.1931 18.4551 34.3052 18.5009C34.4173 18.5468 34.5192 18.6145 34.6048 18.7002C34.6904 18.7858 34.7582 18.8876 34.804 18.9997C34.8499 19.1118 34.873 19.2319 34.8719 19.3531C34.8709 19.4742 34.8457 19.5939 34.7979 19.7051C34.7501 19.8164 34.6806 19.9171 34.5935 20.0012L32.5175 22.0772L34.661 24.7571C34.8033 24.9465 34.8663 25.184 34.8367 25.4191C34.807 25.6542 34.687 25.8685 34.5021 26.0167C34.3171 26.1649 34.0818 26.2353 33.8459 26.213C33.6099 26.1907 33.392 26.0775 33.2381 25.8972L31.2186 23.3761L30.8811 23.7136V25.3262C30.8811 25.5682 30.785 25.8002 30.614 25.9712C30.4429 26.1423 30.2109 26.2384 29.969 26.2384C29.7271 26.2384 29.4951 26.1423 29.324 25.9712C29.153 25.8002 29.0569 25.5682 29.0569 25.3262V19.3554C29.0569 19.1135 29.153 18.8815 29.324 18.7105C29.4951 18.5394 29.7289 18.4433 29.9708 18.4433Z" fill="white"/>
</svg>
