<svg width="237" height="54" viewBox="0 0 237 54" fill="none" xmlns="http://www.w3.org/2000/svg">
<path d="M204.005 0C218.917 3.46984e-05 231.005 12.0883 231.005 27C231.005 27.0042 231.004 27.0085 231.004 27.0127L231.015 27C231.015 35.6125 229.506 45 236.999 54C229.145 53.1265 223.325 50.726 219.832 48.874C215.385 52.0975 209.917 54 204.005 54H27C12.0883 54 0 41.9117 0 27C0 12.0883 12.0883 0 27 0H204.005Z" fill="#131415"/>
<path fill-rule="evenodd" clip-rule="evenodd" d="M198.845 12.9496H192.838V15.1243H196.786V24.8585H198.689V26.7743H196.786V36.7157H192.838V38.8903H198.845V36.7157H200.903V26.9183H204.696V24.7437H200.903V14.9172H198.845V12.9496ZM185.098 18.904H180.929V23.0721H185.098V18.904ZM185.098 28.7936H180.929V32.7028H178.936V34.8516H183.013V32.9617H185.098V28.7936Z" fill="white"/>
<path d="M38.9322 13.015H44.9385V15.1897H40.9904V24.9239H39.0876V26.8398H40.9904V36.7811H44.9385V38.9558H38.9322V36.7811H36.8741V26.9838H33.0813V24.8091H36.8741V14.9826H38.9322V13.015Z" fill="white"/>
<path d="M116.974 20.8825V14.9826H114.916H112.858V20.8825H111.01V22.9534H112.858V32.8209H113.887H114.916V35.0891H123.109V32.8209H124.936V30.8402H120.922V32.8209H116.974V22.9534H120.922V20.8825H116.974Z" fill="#FF7900"/>
<path d="M104.982 30.8537V34.9008H100.865V30.8537H102.923H104.982Z" fill="#FF7900"/>
<path d="M135.063 14.9826V19.0297H130.947V14.9826H133.005H135.063Z" fill="#FF7900"/>
<path d="M135.063 32.9289V20.7933H133.005H130.947V32.9289H133.005V34.7872H137.036V32.9289H135.063Z" fill="#FF7900"/>
<path fill-rule="evenodd" clip-rule="evenodd" d="M62.8834 41.0503V20.8686H64.9416H66.9998H74.915V22.9754H76.9732L76.9732 32.9278H75.9441H74.915V35.0431H66.9998V41.0503H65.9707H64.9416H62.8834ZM72.8569 32.9278L72.8569 22.9754H66.9998V32.9278H72.8569Z" fill="white"/>
<path d="M56.8718 23.0184L56.8718 24.8166L56.8718 26.9039L56.8718 32.9666L56.8718 35.0264H58.93H59.9591H60.9881V29.0192V26.9039L60.9882 25.1252V23.0184H58.9299H56.8718Z" fill="white"/>
<path d="M48.912 24.8166H56.8718L56.8718 26.9039H51.0644V32.9666H56.8718L56.8718 35.0264H48.912V32.9666H46.8013V26.9039H48.912V24.8166Z" fill="white"/>
<path d="M58.9299 23.0184H56.8718H46.8013V20.8461H58.9299V23.0184Z" fill="white"/>
<path fill-rule="evenodd" clip-rule="evenodd" d="M78.9312 41.0503V20.8686H80.9894H83.0476H90.9628V22.9754H93.021L93.021 32.9278H91.9919H90.9628V35.0431H83.0476V41.0503H82.0185H80.9894H78.9312ZM88.9047 32.9278L88.9047 22.9754H83.0476V32.9278H88.9047Z" fill="white"/>
<path fill-rule="evenodd" clip-rule="evenodd" d="M158.868 32.9498V22.9867H160.926V20.896H170.949V22.9867H173.078V26.9079H162.984V32.9498H168.832V30.8232H173.078V32.9498H170.949V35.0414H160.926V32.9498H158.868ZM169.047 22.9867H162.984V25.0783H169.047V22.9867Z" fill="#FF7900"/>
<path d="M147.01 31.0476V20.7933H144.952H142.894V31.0476H144.952V32.9406H147.01V35.0699H153.079V32.9406H154.981V31.0476H157.039V20.7933H154.981H152.923V31.0476H150.954V32.9406H148.845V31.0476H147.01Z" fill="#FF7900"/>
</svg>
