<svg width="48" height="48" viewBox="0 0 48 48" fill="none" xmlns="http://www.w3.org/2000/svg">
<path fill-rule="evenodd" clip-rule="evenodd" d="M11.4322 11.012C12.6762 12.024 13.1422 11.946 15.4782 11.792L37.5042 10.468C37.9702 10.468 37.5822 10.002 37.4262 9.92399L33.7682 7.27999C33.0682 6.73599 32.1342 6.11399 30.3442 6.26799L9.01821 7.82399C8.23821 7.90199 8.08421 8.28999 8.39421 8.60399L11.4322 11.012ZM12.7522 16.146V39.32C12.7522 40.564 13.3762 41.03 14.7762 40.954L38.9822 39.554C40.3822 39.476 40.5402 38.62 40.5402 37.608V14.588C40.5402 13.58 40.1522 13.034 39.2942 13.112L13.9982 14.59C13.0642 14.668 12.7522 15.134 12.7522 16.146ZM36.6502 17.388C36.8062 18.088 36.6502 18.788 35.9502 18.868L34.7822 19.1V36.21C33.7702 36.754 32.8362 37.064 32.0582 37.064C30.8122 37.064 30.5002 36.676 29.5682 35.51L21.9382 23.534V35.12L24.3522 35.666C24.3522 35.666 24.3522 37.066 22.4062 37.066L17.0362 37.376C16.8802 37.064 17.0362 36.288 17.5802 36.132L18.9802 35.744V20.424L17.0362 20.266C16.8802 19.566 17.2682 18.556 18.3602 18.478L24.1202 18.09L32.0602 30.222V19.49L30.0342 19.258C29.8782 18.4 30.5002 17.778 31.2802 17.702L36.6502 17.388ZM7.22821 5.72399L29.4082 4.09199C32.1342 3.85799 32.8342 4.01399 34.5482 5.25799L41.6282 10.234C42.7962 11.09 43.1862 11.324 43.1862 12.256V39.554C43.1862 41.264 42.5622 42.274 40.3842 42.43L14.6242 43.986C12.9862 44.066 12.2082 43.832 11.3522 42.742L6.13821 35.976C5.20421 34.73 4.81421 33.798 4.81421 32.708V8.44599C4.81421 7.04599 5.43821 5.87999 7.22621 5.72599" fill="white"/>
</svg>
