<svg width="475" height="108" viewBox="0 0 475 108" fill="none" xmlns="http://www.w3.org/2000/svg">
<path d="M409 0C438.823 0 463 24.1766 463 54C463 54.0085 462.999 54.0169 462.999 54.0254L463.02 54C463.02 71.2251 460 90 475 108C459.289 106.254 447.643 101.459 440.649 97.7559C431.756 104.2 420.822 108 409 108H54.5537C24.7305 108 0.553711 83.8233 0.553711 54C0.553711 24.1767 24.7305 0.000164827 54.5537 0H409Z" fill="#131415"/>
<path fill-rule="evenodd" clip-rule="evenodd" d="M397.689 25.8993H385.677V30.2487H393.573V49.7172H397.379V53.5488H393.573V73.4315H385.677V77.7808H397.689V73.4315H401.805V53.8368H409.391V49.4875H401.805V29.8345H397.689V25.8993ZM370.195 37.8081H361.859V46.1443H370.195V37.8081ZM370.195 57.5873H361.859V65.4058H357.872V69.7033H366.027V65.9235H370.195V57.5873Z" fill="white"/>
<path d="M77.8645 26.0302H89.877V30.3795H81.9809V49.848H78.1752V53.6797H81.9809V73.5623H89.877V77.9117H77.8645V73.5623H73.7482V53.9677H66.1627V49.6183H73.7482V29.9653H77.8645V26.0302Z" fill="white"/>
<path d="M233.948 41.7651V29.9653H229.832H225.716V41.7651H222.021V45.907H225.716V65.6419H227.774H229.832V70.1783H246.218V65.6419H249.873V61.6805H241.844V65.6419H233.948V45.907H241.844V41.7651H233.948Z" fill="#FF7900"/>
<path d="M209.963 61.7076V69.8017H201.73V61.7076H205.847H209.963Z" fill="#FF7900"/>
<path d="M270.126 29.9653V38.0595H261.893V29.9653H266.01H270.126Z" fill="#FF7900"/>
<path d="M270.126 65.858V41.5869H266.01H261.893V65.858H266.01V69.5745H274.073V65.858H270.126Z" fill="#FF7900"/>
<path fill-rule="evenodd" clip-rule="evenodd" d="M125.767 82.1007V41.7373H129.883H134H149.83V45.9509H153.946L153.946 65.8557H151.888H149.83V70.0863H134V82.1007H131.941H129.883H125.767ZM145.714 65.8557L145.714 45.9509H134V65.8557H145.714Z" fill="white"/>
<path d="M113.744 46.0371L113.744 49.6334L113.744 53.8081L113.744 65.9333L113.744 70.053H117.86H119.918H121.976V58.0387V53.8081L121.976 50.2507V46.0371H117.86H113.744Z" fill="white"/>
<path d="M97.8239 49.6334H113.744L113.744 53.8081H102.129V65.9333H113.744L113.744 70.053H97.8239V65.9333H93.6026V53.8081H97.8239V49.6334Z" fill="white"/>
<path d="M117.86 46.0371H113.744H93.6026V41.6925H117.86V46.0371Z" fill="white"/>
<path fill-rule="evenodd" clip-rule="evenodd" d="M157.862 82.1007V41.7373H161.979H166.095H181.926V45.9509H186.042L186.042 65.8557H183.984H181.926V70.0863H166.095V82.1007H164.037H161.979H157.862ZM177.809 65.8557L177.809 45.9509H166.095V65.8557H177.809Z" fill="white"/>
<path fill-rule="evenodd" clip-rule="evenodd" d="M317.736 65.8996V45.9736H321.852V41.7921H341.899V45.9736H346.157V53.8159H325.968V65.8996H337.664V61.6465H346.157V65.8996H341.899V70.083H321.852V65.8996H317.736ZM338.094 45.9736H325.968V50.1567H338.094V45.9736Z" fill="#FF7900"/>
<path d="M294.02 62.0953V41.5869H289.903H285.787V62.0953H289.904V65.8814H294.02V70.14H306.158V65.8814H309.962V62.0953H314.078V41.5869H309.962H305.846V62.0953H301.908V65.8814H297.69V62.0953H294.02Z" fill="#FF7900"/>
</svg>
