<svg width="132" height="144" viewBox="0 0 132 144" fill="none" xmlns="http://www.w3.org/2000/svg">
<path d="M66 18C95.8234 18 120 42.1766 120 72C120 72.0085 119.999 72.0169 119.999 72.0254L120.02 72C120.02 89.2251 117 108 132 126C116.289 124.254 104.643 119.459 97.6494 115.756C88.7561 122.2 77.8222 126 66 126H54C24.1766 126 0 101.823 0 72C0 42.1766 24.1766 18 54 18H66Z" fill="#131415"/>
<path fill-rule="evenodd" clip-rule="evenodd" d="M72.9108 45.1613H61.3707V49.3396H68.9562V68.0424H72.6123V71.7233H68.9562V90.824H61.3707V95.0023H72.9108V90.824H76.8651V72H84.1523V67.8217H76.8651V48.9417H72.9108V45.1613ZM46.4982 56.6017H38.4897V64.61H46.4982V56.6017ZM46.4982 75.603H38.4897V83.114H34.6597V87.2424H42.4938V83.6113H46.4982V75.603Z" fill="#FF7900"/>
</svg>
